<svg id="Group_37" data-name="Group 37" xmlns="http://www.w3.org/2000/svg" width="101.582" height="33" viewBox="0 0 101.582 33">
  <text id="x" transform="translate(0 26)" fill="#fff" font-size="25" font-family="Roboto-Regular, Roboto"><tspan x="0" y="0">delete</tspan></text>
  <path id="ico_trashbin" d="M841.247,1099.424m0,0Zm0,0Zm0,0a2.207,2.207,0,0,1-1.133,1.936l-2.524,17.514a2.129,2.129,0,0,1-2.109,1.822H821.6a2.145,2.145,0,0,1-2.123-1.822l-2.639-17.514a2.223,2.223,0,0,1,1.09-4.16h21.1a2.25,2.25,0,0,1,1.578.66A2.2,2.2,0,0,1,841.247,1099.424Zm-2.5,1.334-2.582,17.916a.708.708,0,0,1-.689.589H821.6a.722.722,0,0,1-.7-.6l-2.7-17.9a.713.713,0,0,0-.5-.573.8.8,0,0,1-.559-.76.782.782,0,0,1,.229-.56.792.792,0,0,1,.56-.23h21.1a.791.791,0,0,1,.559.23.845.845,0,0,1,.23.56h0a.8.8,0,0,1-.56.76A.713.713,0,0,0,838.751,1100.757Zm-15.362,3.189h0a.718.718,0,0,1,.717.717v11.188a.718.718,0,0,1-.717.718h0a.718.718,0,0,1-.718-.718v-11.188A.718.718,0,0,1,823.389,1103.946Zm5.083,0h0a.718.718,0,0,1,.718.717v11.188a.718.718,0,0,1-.718.718h0a.718.718,0,0,1-.717-.718v-11.188A.718.718,0,0,1,828.472,1103.946Zm5.084,0h0a.718.718,0,0,1,.717.717v11.188a.718.718,0,0,1-.717.718h0a.718.718,0,0,1-.717-.718v-11.188A.718.718,0,0,1,833.556,1103.946Z" transform="translate(-739.665 -1092.448)" fill="#fff" fill-rule="evenodd"/>
</svg>
